<?xml version="1.0" standalone="no"?><!DOCTYPE svg PUBLIC "-//W3C//DTD SVG 1.1//EN" "http://www.w3.org/Graphics/SVG/1.1/DTD/svg11.dtd"><svg t="1565076600697" class="icon" viewBox="0 0 1024 1024" version="1.1" xmlns="http://www.w3.org/2000/svg" p-id="2847" xmlns:xlink="http://www.w3.org/1999/xlink" width="200" height="200"><defs><style type="text/css"></style></defs><path d="M513.28 3.584C231.936 3.584 3.84 231.68 3.84 513.024s228.096 509.44 509.44 509.44 509.44-228.096 509.44-509.44-228.096-509.44-509.44-509.44z m287.744 761.216c-15.744 0-30.72-3.84-43.776-10.368-62.976 64.128-149.248 101.376-241.408 101.376-85.248 0-165.504-31.872-226.816-87.552-16.512 12.288-36.48 19.2-58.368 19.2-54.528 0-98.688-44.16-98.688-98.688 0-39.168 22.656-72.96 55.68-88.704-6.528-26.496-9.984-54.144-9.984-82.176 0-145.92 93.696-273.664 228.736-319.744 6.144-48.768 47.616-86.4 97.92-86.4 48 0 87.936 34.176 96.768 79.488 141.312 36.864 244.48 161.664 252.16 309.376 0.768 10.368-7.296 19.2-17.664 19.584-10.368 0.768-19.2-7.296-19.584-17.664-6.528-128.256-94.08-236.8-214.912-272.512-9.216 45.312-49.152 79.104-96.768 79.104-45.312 0-83.328-30.336-94.848-71.808C294.4 280.832 215.296 391.68 215.296 518.4c0 24.576 3.072 49.152 8.832 72.576 2.304-0.384 4.224-0.384 6.528-0.384 54.528 0 98.688 44.16 98.688 98.688 0 18.816-5.76 36.864-14.976 51.84 54.528 49.536 125.568 77.568 201.088 77.568 80.64 0 155.904-31.488 211.456-86.784-15.744-17.28-24.96-40.32-24.96-65.28 0-54.528 44.16-98.688 98.688-98.688 54.144 0 98.304 44.16 99.072 98.304 0 54.528-44.16 98.56-98.688 98.56z" p-id="2848"></path></svg>