<?xml version="1.0" standalone="no"?><!DOCTYPE svg PUBLIC "-//W3C//DTD SVG 1.1//EN" "http://www.w3.org/Graphics/SVG/1.1/DTD/svg11.dtd"><svg t="1563936895057" class="icon" viewBox="0 0 1024 1024" version="1.1" xmlns="http://www.w3.org/2000/svg" p-id="5155" xmlns:xlink="http://www.w3.org/1999/xlink" width="200" height="200"><defs><style type="text/css"></style></defs><path d="M1028.79348627 1011.65988235L1028.79348627 443.72431173 589.6917867 1.67345099 18.80705628 1.67345099l1009.98642999 1009.98643136z m-162.54721575-387.51159467l-49.20653891-49.20653891-58.43781467 58.45801502-12.68542976-12.68542977 58.458015-58.43781469-49.02474154-49.02474152-10.78665488 10.8068552-12.34203398-12.342034 80.55651653-80.55651789 61.36677551 61.36677551 30.84498617-30.84498617 12.68542977 12.68542977-30.84498618 30.84498618 61.52837394 61.52837257-80.5565179 80.5565179-12.34203397-12.32183367 10.78665487-10.82705553zM703.77985329 308.10333462l12.18043695-12.16023663 82.09169668 82.09169668-12.18043695 12.16023662-82.09169668-82.09169667z m-88.09101648 178.60599959l-25.2092611-25.18906079 9.5948705-14.74580169c7.71629595 8.7464819 15.08919746 16.80617362 22.62369604 24.34067219 5.47412666 5.47412666 10.62505786 6.16091683 15.08919747 1.69677719l71.83023496-71.81003461-53.99387401-53.99387537 12.16023664-12.18043556 94.27213364 94.27213363-12.18043696 12.18043556-27.77462723-27.77462586-74.90059391 74.90059251c-9.91806734 9.9584666-20.5431238 9.27167504-31.51157604-1.6967772z m88.61620962-210.98616455c-28.62301583 9.43327346-60.84158237 10.8068552-96.67590133 4.12074385l8.7464819-15.93758471c30.50159039 5.13073087 57.77122342 3.5955521 81.93009965-4.46414101l5.99931978 16.28098187z m-77.14276315 55.87244854l-83.99047158 83.99047157-12.16023663-12.18043557 71.46663885-71.46664021a309.86383729 309.86383729 0 0 1-40.27825827-4.62573805l8.7464819-15.93758608c35.65252159 6.16091683 67.70948972 4.62573805 96.33250556-4.8075354l5.99931979 16.28098185c-14.58420465 4.62573805-29.99659758 7.71629595-46.11597962 8.74648189z m-139.84272119-210.11757701c1.53517878-15.25079451 1.03018596-33.93554407-1.3533828-55.87244856l16.44257889 0.34339579c2.56536612 20.40172571 3.5955521 38.90467789 2.56536612 55.71085152l-17.65456221-0.18179875z m2.56536474 234.64004793l-39.22787335-39.24807228c-9.27167504-9.25147611-19.20994131-19.53313817-29.83499915-30.52179072-10.8068552-11.13005067-18.52315114-20.90671852-23.49228359-29.65320044-4.62573805-8.7464819-6.32251525-19.02814397-5.47412665-30.50159038 0.68679018-5.15093118-0.18179737-8.7464819-2.22197036-10.8068552-4.10054491-4.12074524-18.68474955-2.90876053-43.87381034 3.43395365l-0.86858894-17.65456222c23.47208464-5.31252822 40.27825825-5.99931979 50.39832329-2.06037329l52.09510049-52.11529942-24.50227061-24.5022706 11.31184802-11.31184802 35.99591599 35.99591598-64.113939 64.09373869c0.36359472 2.40376769 0.36359472 5.13073087 0.18179736 8.05969171-0.84838861 9.08987767-0.18179737 16.96777203 2.38356876 23.9972778 2.76736242 7.53449858 9.08987767 16.62437627 18.7049485 26.9060383 8.7464819 9.08987767 19.71493551 20.40172571 32.90535811 33.59214968 8.03949139 8.05969171 16.44257889 16.0991831 25.00726342 24.34067217 8.40308749 8.03949139 15.08919746 14.38220697 19.87653394 18.50295221l-15.25079589 9.45347238z m49.36813733-204.64345036l27.24943409-27.24943408 11.81684083 11.81684083-27.24943409 27.24943409 27.08783568 27.08783708 27.08783705-27.08783708 11.99863821 11.99863959-27.08783567 27.06763537 21.77530744 21.77530743-11.47344645 11.49364678-21.77530745-21.77530745-34.09714109 34.0971411 27.24943271 27.24943411-11.67544274 11.69564305-27.2494341-27.26963441-49.2065389 49.20653889-11.9986382-11.9986382 49.20653889-49.18633857-30.52179071-30.50159042c-25.02746374 16.0991831-49.18633857 22.44189867-72.33522777 19.18974238l2.58556507-17.3111678c18.50295081 3.0905579 37.87449055-1.53517878 57.75102449-13.89741311l-22.62369604-22.62369604 11.65524381-11.65524379 24.84566639 24.84566639c7.35270122-5.65592402 14.72560275-11.99863821 21.93690447-19.2099427l13.55401868-13.53381698-20.24012865-20.21992835 11.47344645-11.49364676 20.2603276 20.24012865z" fill="#FF534F" p-id="5156"></path><path d="M539.59645854 174.785125l-10.78665486 10.8068552c-8.24148908 8.22129014-16.64457658 15.59419029-24.70426831 21.93690586l28.44121849 28.44121709 34.11734142-34.09714111-27.06763674-27.08783704z" fill="#FF534F" p-id="5157"></path><path d="M767.34839885 501.27333854l45.77258522-45.77258386 49.00454121 49.02474016-45.75238489 45.75238629zM874.79075612 517.21092461l49.18633857 49.2065389-45.77258523 45.7523863-49.18633858-49.20653891z" fill="#FF534F" p-id="5158"></path></svg>